2.5Hzlow3min_grf.mot
version=1
nRows=12
nColumns 19
inDegrees=yes
endheader
time	1_ground_force_vx	1_ground_force_vy	1_ground_force_vz	1_ground_force_px	1_ground_force_py	1_ground_force_pz	1_ground_torque_x	1_ground_torque_y	1_ground_torque_z	2_ground_force_vx	2_ground_force_vy	2_ground_force_vz	2_ground_force_px	2_ground_force_py	2_ground_force_pz	2_ground_torque_x	2_ground_torque_y	2_ground_torque_z
            1.253500	            0.503391	            9.192271	            0.359161	           -0.233013	            0.005581	           -0.255695	            0.168716	           -0.388752	            0.207071	            0.405410	            4.423425	           -0.641403	           -0.232311	            0.006130	           -0.833667	           -0.356044	           -0.237808	            0.055859
            1.254000	            0.457875	            8.651071	            0.448668	           -0.233013	            0.005581	           -0.255695	            0.240086	           -0.333054	            0.148802	            0.497137	            4.976041	           -0.592544	           -0.232311	            0.006130	           -0.833667	           -0.205795	           -0.227813	            0.055829
            1.254500	            0.366108	            8.470985	            0.402266	           -0.233013	            0.005581	           -0.255695	            0.204460	           -0.314376	            0.088673	            0.264819	            4.423253	           -0.735200	           -0.232311	            0.006130	           -0.833667	           -0.243321	           -0.255836	           -0.076208
            1.255000	            0.548977	            8.111472	            0.170986	           -0.233013	            0.005581	           -0.255695	            0.214541	           -0.351352	            0.115120	            0.454254	            3.871150	           -0.643394	           -0.232311	            0.006130	           -0.833667	           -0.243374	           -0.227881	            0.036995
            1.255500	            0.504011	            8.290156	            0.538720	           -0.233013	            0.005581	           -0.255695	            0.217875	           -0.342680	            0.244774	            0.355258	            5.343830	           -0.591170	           -0.232311	            0.006130	           -0.833667	           -0.243399	           -0.227679	           -0.019556
            1.256000	            0.045240	            8.290657	            0.402290	           -0.233013	            0.005581	           -0.255695	            0.148606	           -0.352152	            0.225358	            0.219361	            4.054285	           -0.595710	           -0.232311	            0.006130	           -0.833667	           -0.205812	           -0.227678	            0.018129
            1.256500	            0.366057	            9.372116	            0.451987	           -0.233013	            0.005581	           -0.255695	            0.164490	           -0.397733	            0.125979	            0.360534	            3.870979	           -0.690283	           -0.232311	            0.006130	           -0.833667	           -0.205982	           -0.180415	            0.018297
            1.257000	            0.595128	            8.291156	            0.309213	           -0.233013	            0.005581	           -0.255695	            0.265212	           -0.379610	            0.248408	            0.359910	            4.054792	           -0.595769	           -0.232311	            0.006130	           -0.833667	           -0.262235	           -0.218160	           -0.057215
            1.257500	            0.641166	            8.471038	            0.401584	           -0.233013	            0.005581	           -0.255695	            0.185769	           -0.342064	            0.119128	            0.357149	            4.792222	           -0.827782	           -0.232311	            0.006130	           -0.833667	           -0.205872	           -0.208840	            0.037046
            1.258000	            0.366141	            8.290719	            0.401493	           -0.233013	            0.005581	           -0.255695	            0.204813	           -0.333265	            0.182589	            0.221998	            3.317859	           -0.645266	           -0.232311	            0.006130	           -0.833667	           -0.262160	           -0.227949	            0.037003
            1.258500	            0.549495	            9.011621	            0.449986	           -0.233013	            0.005581	           -0.255695	            0.202842	           -0.380122	            0.359369	            0.220046	            3.869969	           -0.549439	           -0.232311	            0.006130	           -0.833667	           -0.262296	           -0.190138	            0.037138
            1.259000	            0.411430	            8.832311	            0.220275	           -0.233013	            0.005581	           -0.255695	            0.268657	           -0.351806	            0.203084	            0.264943	            4.422248	           -0.453631	           -0.232311	            0.006130	           -0.833667	           -0.186958	           -0.246516	            0.018053
